<?xml version="1.0" standalone="no"?>
<!DOCTYPE svg PUBLIC "-//W3C//DTD SVG 20010904//EN"
 "http://www.w3.org/TR/2001/REC-SVG-20010904/DTD/svg10.dtd">
<svg version="1.0" xmlns="http://www.w3.org/2000/svg"
 width="886.000000pt" height="886.000000pt" viewBox="0 0 886.000000 886.000000"
 preserveAspectRatio="xMidYMid meet">
<metadata>
Created by potrace 1.11, written by Peter Selinger 2001-2013
</metadata>
<g transform="translate(0.000000,886.000000) scale(0.100000,-0.100000)"
fill="#000000" stroke="none">
<path d="M205 6423 c5 -119 12 -235 20 -308 2 -22 6 -60 9 -85 13 -122 42
-290 81 -462 17 -75 74 -274 107 -373 391 -1171 1294 -2127 2442 -2585 328
-131 696 -227 1021 -265 28 -4 61 -8 75 -10 183 -27 769 -27 950 0 63 9 109
15 155 21 28 3 69 10 93 15 23 5 59 12 80 15 20 3 45 7 54 10 10 3 30 7 45 10
16 3 36 7 45 10 9 3 25 7 36 9 62 11 272 73 394 115 395 134 795 345 1138 599
219 162 534 455 690 641 34 41 71 85 81 98 42 49 168 221 216 292 170 254 254
409 398 735 63 142 157 425 200 603 14 56 54 242 59 272 3 19 8 46 10 60 3 14
7 43 10 65 4 22 8 51 11 65 4 24 13 102 20 180 3 36 16 270 18 348 l2 42 -313
-2 -314 -3 -3 -100 c-4 -105 -14 -252 -20 -295 -2 -14 -7 -50 -10 -80 -5 -45
-41 -246 -61 -339 -28 -132 -114 -401 -179 -556 -110 -266 -281 -567 -444
-780 -25 -33 -49 -64 -53 -70 -4 -5 -35 -44 -70 -85 -407 -487 -940 -863
-1521 -1074 -204 -74 -471 -147 -590 -161 -21 -2 -41 -6 -45 -9 -5 -3 -30 -7
-58 -11 -27 -3 -69 -8 -94 -11 -82 -11 -94 -12 -195 -20 -177 -13 -534 -7
-655 11 -14 2 -49 7 -79 10 -30 4 -63 9 -75 11 -11 2 -38 6 -61 10 -57 8 -217
42 -305 65 -328 86 -666 230 -955 406 -11 7 -27 16 -35 20 -53 25 -287 196
-410 298 -569 474 -986 1133 -1175 1858 -38 146 -38 146 -50 217 -4 25 -9 54
-12 65 -22 97 -50 378 -54 543 l-2 82 -313 0 -313 0 4 -117z"/>
</g>
</svg>
